<svg xmlns="http://www.w3.org/2000/svg" viewBox="0 0 512 512" role="img" aria-label="">
  <defs>
    <linearGradient id="glass" x1="0" y1="0" x2="1" y2="1"><stop stop-color="#FFF8F3" stop-opacity=".95"/><stop offset=".45" stop-color="#F6B691" stop-opacity=".72"/><stop offset="1" stop-color="#E8895E" stop-opacity=".88"/></linearGradient>
    <linearGradient id="gold" x1="0" y1="0" x2="1" y2="1"><stop stop-color="#F6D49B"/><stop offset=".55" stop-color="#C58B35"/><stop offset="1" stop-color="#8E5C1C"/></linearGradient>
    <linearGradient id="lip" x1="0" y1="0" x2="1" y2="1"><stop stop-color="#FF4057"/><stop offset="1" stop-color="#B40F32"/></linearGradient>
    <filter id="shadow" x="-25%" y="-25%" width="150%" height="160%"><feDropShadow dx="0" dy="12" stdDeviation="10" flood-color="#4A211A" flood-opacity=".24"/></filter>
  </defs>
  <g filter="url(#shadow)">
    <rect x="74" y="165" width="220" height="239" rx="42" fill="url(#glass)" stroke="#E99A72" stroke-width="9"/>
    <rect x="118" y="100" width="132" height="78" rx="18" fill="url(#gold)"/>
    <rect x="143" y="65" width="82" height="48" rx="12" fill="#F4D7A5"/>
    <path d="M99 221c39-26 114-33 165-6" fill="none" stroke="#FFF" stroke-width="18" stroke-linecap="round" opacity=".42"/>
    <path d="M120 340c49 20 103 18 148-4" fill="none" stroke="#D56B50" stroke-width="7" stroke-linecap="round" opacity=".48"/>
    <g transform="translate(292 120)">
      <rect x="28" y="118" width="67" height="213" rx="14" fill="#17191E"/>
      <rect x="38" y="90" width="47" height="58" rx="8" fill="url(#gold)"/>
      <path d="M42 90c0-62 39-95 43-90 19 28 9 68 0 90z" fill="url(#lip)"/>
      <rect x="31" y="278" width="61" height="61" rx="12" fill="#AA1737" opacity=".85"/>
    </g>
    <g transform="translate(300 318)">
      <ellipse cx="92" cy="78" rx="96" ry="74" fill="#17191E"/>
      <ellipse cx="92" cy="73" rx="72" ry="51" fill="#F2C7B2"/>
      <ellipse cx="92" cy="66" rx="57" ry="37" fill="#F9DED0"/>
      <path d="M34 54c28-17 86-21 119-4" fill="none" stroke="#FFF" stroke-width="9" stroke-linecap="round" opacity=".45"/>
    </g>
  </g>
</svg>