<svg xmlns="http://www.w3.org/2000/svg" viewBox="0 0 1000 260" preserveAspectRatio="xMaxYMid meet" role="img" aria-label="Finance : pièces, courbe de marge et rapprochement">
  <defs>
    <radialGradient id="glow" cx="50%" cy="50%" r="50%"><stop offset="0" stop-color="#E7D7A3" stop-opacity=".75"/><stop offset="1" stop-color="#E7D7A3" stop-opacity="0"/></radialGradient>
    <linearGradient id="card" x1="0" y1="0" x2="1" y2="1"><stop offset="0" stop-color="#FFFFFF"/><stop offset="1" stop-color="#F6EFDF"/></linearGradient>
    <linearGradient id="goldF" x1="0" y1="0" x2="1" y2="1"><stop offset="0" stop-color="#E0C25A"/><stop offset="1" stop-color="#B58C18"/></linearGradient>
    <linearGradient id="navyF" x1="0" y1="0" x2="1" y2="1"><stop offset="0" stop-color="#1B3C6E"/><stop offset="1" stop-color="#0D2A52"/></linearGradient>
    <pattern id="dots" width="12" height="12" patternUnits="userSpaceOnUse"><circle cx="3" cy="3" r="1.5" fill="#C9A227"/></pattern>
    <clipPath id="land">
      <path d="M470 70c30-18 70-20 100-8s48 26 40 44-40 26-78 22-80-20-62-58z"/><path d="M640 52c26-12 62-10 84 6s18 40-8 52-62 6-82-10-18-34 6-48z"/><path d="M780 96c22-10 52-6 68 10s6 38-18 46-52-2-62-22 0-26 12-34z"/><path d="M860 40c18-8 44-4 56 10s0 32-22 36-42-8-44-24 2-16 10-22z"/>
    </clipPath>
    <clipPath id="landL">
      <path d="M60 110c26-20 66-24 96-10s44 30 30 48-52 24-92 14-52-30-34-52z"/><path d="M220 56c26-14 62-12 84 4s16 40-10 52-60 6-80-10-16-34 6-46z"/><path d="M300 150c24-10 56-6 72 10s4 36-20 44-52-2-60-22 0-24 8-32z"/>
    </clipPath>
  </defs>
  <circle cx="700" cy="140" r="190" fill="url(#glow)"/>
  <circle cx="300" cy="150" r="150" fill="url(#glow)" opacity=".8"/>
  <rect x="440" y="30" width="520" height="140" fill="url(#dots)" opacity=".34" clip-path="url(#land)"/>
  <rect x="40" y="40" width="360" height="170" fill="url(#dots)" opacity=".34" clip-path="url(#landL)"/>
  <ellipse cx="690" cy="236" rx="330" ry="9" fill="#071A3D" opacity=".07"/>
  <path d="M60 232h920" stroke="#C9A227" stroke-opacity=".55" stroke-width="2" stroke-linecap="round"/>
  <!-- ledger sheet -->
  <g>
    <rect x="470" y="96" width="150" height="136" rx="10" fill="url(#card)" stroke="#C9A227" stroke-width="1.8"/>
    <rect x="470" y="96" width="150" height="14" rx="7" fill="#071A3D"/>
    <g fill="#0D2A52"><rect x="486" y="128" width="72" height="6" rx="3"/><rect x="486" y="152" width="96" height="6" rx="3" fill-opacity=".75"/><rect x="486" y="176" width="64" height="6" rx="3" fill-opacity=".75"/></g>
    <g fill="#E0CB8B"><rect x="486" y="138" width="44" height="5" rx="2.5"/><rect x="486" y="162" width="58" height="5" rx="2.5"/><rect x="486" y="186" width="40" height="5" rx="2.5"/></g>
    <circle cx="590" cy="206" r="13" fill="url(#goldF)"/><path d="M583 206l5 5 9-10" fill="none" stroke="#FFF9F0" stroke-width="3" stroke-linecap="round" stroke-linejoin="round"/>
    <path d="M486 206h72" stroke="#071A3D" stroke-width="2.4" stroke-linecap="round"/>
  </g>
  <!-- coin stacks -->
  <g>
    <g fill="url(#goldF)" stroke="#A67C12" stroke-width="1.4">
      <ellipse cx="672" cy="222" rx="30" ry="9"/><ellipse cx="672" cy="210" rx="30" ry="9"/><ellipse cx="672" cy="198" rx="30" ry="9"/><ellipse cx="672" cy="186" rx="30" ry="9"/>
      <ellipse cx="732" cy="222" rx="30" ry="9"/><ellipse cx="732" cy="210" rx="30" ry="9"/>
    </g>
    <ellipse cx="672" cy="186" rx="19" ry="5" fill="none" stroke="#FFF9F0" stroke-opacity=".75" stroke-width="1.6"/>
    <ellipse cx="732" cy="210" rx="19" ry="5" fill="none" stroke="#FFF9F0" stroke-opacity=".75" stroke-width="1.6"/>
  </g>
  <!-- growth bars + margin curve -->
  <g>
    <rect x="790" y="190" width="26" height="42" rx="3" fill="#E7D7A3"/>
    <rect x="822" y="164" width="26" height="68" rx="3" fill="#D8B53F"/>
    <rect x="854" y="138" width="26" height="94" rx="3" fill="url(#navyF)"/>
    <rect x="886" y="112" width="26" height="120" rx="3" fill="#071A3D"/>
    <path d="M784 170l38-30 32-12 32-30 30-18" fill="none" stroke="#A67C12" stroke-width="3.5" stroke-linecap="round" stroke-linejoin="round"/>
    <path d="M910 76l16-5-5 15" fill="none" stroke="#A67C12" stroke-width="3.5" stroke-linecap="round" stroke-linejoin="round"/>
    <circle cx="822" cy="140" r="4.5" fill="#FFF9F0" stroke="#A67C12" stroke-width="2"/><circle cx="854" cy="128" r="4.5" fill="#FFF9F0" stroke="#A67C12" stroke-width="2"/>
  </g>
  <!-- left extension -->
  <path d="M110 190C170 96 260 70 390 112" fill="none" stroke="#C9A227" stroke-width="2.2" stroke-dasharray="2 8" stroke-linecap="round"/>
  <g transform="translate(110 190)"><circle r="9" fill="#FFF9F0" stroke="#A67C12" stroke-width="2"/><circle r="3.5" fill="#071A3D"/></g>
  <g transform="translate(250 84)"><circle r="8" fill="#FFF9F0" stroke="#A67C12" stroke-width="2"/><circle r="3" fill="#071A3D"/></g>
  <g transform="translate(140 214)"><g fill="url(#goldF)" stroke="#A67C12" stroke-width="1.4"><ellipse cx="20" cy="2" rx="22" ry="7"/><ellipse cx="20" cy="-8" rx="22" ry="7"/><ellipse cx="20" cy="-18" rx="22" ry="7"/></g><rect x="60" y="-30" width="70" height="40" rx="6" fill="#FFFFFF" stroke="#C9A227" stroke-width="1.6"/><rect x="60" y="-30" width="70" height="9" rx="4.5" fill="#071A3D"/><rect x="70" y="-12" width="40" height="5" rx="2.5" fill="#0D2A52"/></g>
</svg>
